# xmcd CD database file
#
# Track frame offsets:
#	150
#	15540
#	27360
#	44445
#	59070
#	76545
#	90945
#	103385
#	124165
#	139777
#	153725
#	165465
#
# Disc length: 2372 seconds
#
# Revision: 2
# Processed by: cddbd v1.5.2PL0 Copyright (c) Steve Scherf et al.
# Submitted via: CDex 1.51
#
DISCID=9609420c
DTITLE=J.B. Hutto and The Hawks - Masters Of Modern Blues
DYEAR=1900
DGENRE=Blues
TTITLE0=Dust My Broom
TTITLE1=Mistake In Life
TTITLE2=Goin' Down Slow
TTITLE3=Lulubelle's Here
TTITLE4=She's So Sweet
TTITLE5=My Kind Of Woman
TTITLE6=Pet Cream Man
TTITLE7=Blues Stay Away From Me
TTITLE8=The Girl I Love
TTITLE9=Sloppy Drunk
TTITLE10=Wild Wild Woman
TTITLE11=Bluebird
EXTD=
EXTT0=
EXTT1=
EXTT2=
EXTT3=
EXTT4=
EXTT5=
EXTT6=
EXTT7=
EXTT8=
EXTT9=
EXTT10=
EXTT11=
PLAYORDER=
